# xmcd
#
# Track frame offsets: 
#        150
#        17032
#        30125
#        46830
#        67113
#        83540
#
# Disc length: 1407 seconds
#
# Revision: 0
# Processed by: cddbd v1.5.2PL0 Copyright (c) Steve Scherf et al.
# Submitted via: ExactAudioCopy v1.3
#
DISCID=39057d06
DTITLE=Maybe April - Maybe April (EP)
DYEAR=2017
DGENRE=Country
TTITLE0=Last Time
TTITLE1=California
TTITLE2=Breaking Point
TTITLE3=Crazy
TTITLE4=Blush
TTITLE5=Tennessee
EXTD=
EXTT0=
EXTT1=
EXTT2=
EXTT3=
EXTT4=
EXTT5=
PLAYORDER=
